<?xml version="1.0" encoding="UTF-8" standalone="no"?>
<!-- Created with Inkscape (http://www.inkscape.org/) -->

<svg
   version="1.1"
   id="svg2"
   width="1056"
   height="816"
   viewBox="0 0 1056 816"
   sodipodi:docname="LasMinas_Logo.ai"
   xmlns:inkscape="http://www.inkscape.org/namespaces/inkscape"
   xmlns:sodipodi="http://sodipodi.sourceforge.net/DTD/sodipodi-0.dtd"
   xmlns="http://www.w3.org/2000/svg"
   xmlns:svg="http://www.w3.org/2000/svg">
  <defs
     id="defs6">
    <clipPath
       clipPathUnits="userSpaceOnUse"
       id="clipPath24">
      <path
         d="M 0,612 H 792 V 0 H 0 Z"
         id="path22" />
    </clipPath>
  </defs>
  <sodipodi:namedview
     id="namedview4"
     pagecolor="#ffffff"
     bordercolor="#000000"
     borderopacity="0.25"
     inkscape:showpageshadow="2"
     inkscape:pageopacity="0.0"
     inkscape:pagecheckerboard="0"
     inkscape:deskcolor="#d1d1d1" />
  <g
     id="g8"
     inkscape:groupmode="layer"
     inkscape:label="LasMinas_Logo"
     transform="matrix(1.3333333,0,0,-1.3333333,0,816)">
    <g
       id="g10"
       transform="translate(246.9182,228.0144)">
      <path
         d="m 0,0 5.048,-11.184 -39.192,-17.692 10.49,-23.238 -4.476,-2.021 -15.539,34.42 z"
         style="fill:#231f20;fill-opacity:1;fill-rule:nonzero;stroke:none"
         id="path12" />
    </g>
    <g
       id="g14"
       transform="translate(250.3976,161.1165)">
      <path
         d="M 0,0 10.228,-11.017 16.531,4.94 Z m 31.468,12.222 -19.896,-50.447 -8.523,9.181 5.32,13.486 -13.211,14.229 -14.043,-4.088 -5.665,6.102 52.408,15.424 z"
         style="fill:#231f20;fill-opacity:1;fill-rule:nonzero;stroke:none"
         id="path16" />
    </g>
    <g
       id="g18">
      <g
         id="g20"
         clip-path="url(#clipPath24)">
        <g
           id="g26"
           transform="translate(292.638,103.327)">
          <path
             d="m 0,0 c -2.622,1.451 -4.753,3.014 -6.394,4.69 -1.641,1.677 -2.864,3.41 -3.669,5.202 -0.805,1.792 -1.22,3.63 -1.244,5.515 -0.024,1.884 0.288,3.765 0.934,5.642 l 7.447,-4.123 C -3.251,15.732 -3.416,14.545 -3.424,13.365 -3.432,12.184 -3.239,11.048 -2.848,9.957 -2.456,8.865 -1.844,7.839 -1.013,6.881 -0.182,5.923 0.921,5.063 2.296,4.302 3.2,3.801 4.148,3.398 5.143,3.089 6.137,2.781 7.106,2.642 8.049,2.672 c 0.943,0.03 1.815,0.261 2.616,0.693 0.8,0.431 1.474,1.142 2.022,2.131 0.684,1.236 0.961,2.524 0.831,3.86 -0.13,1.338 -0.523,2.707 -1.179,4.107 -0.657,1.401 -1.496,2.827 -2.516,4.281 -1.021,1.454 -2.071,2.929 -3.15,4.429 -1.078,1.5 -2.105,3.016 -3.08,4.553 -0.976,1.535 -1.75,3.074 -2.327,4.62 -0.577,1.544 -0.87,3.093 -0.88,4.647 -0.011,1.553 0.405,3.092 1.25,4.619 0.925,1.67 2.159,2.997 3.704,3.987 1.544,0.989 3.323,1.606 5.339,1.849 2.017,0.245 4.23,0.083 6.638,-0.484 2.41,-0.566 4.947,-1.587 7.613,-3.063 2.192,-1.213 4.02,-2.601 5.484,-4.166 1.463,-1.565 2.596,-3.235 3.396,-5.01 0.8,-1.775 1.283,-3.605 1.449,-5.486 0.164,-1.883 0.06,-3.744 -0.312,-5.584 l -6.738,3.731 c 0.162,1.201 0.234,2.4 0.222,3.593 -0.014,1.192 -0.209,2.336 -0.585,3.433 -0.375,1.096 -0.989,2.142 -1.842,3.139 -0.852,0.998 -2.019,1.906 -3.501,2.727 -1.398,0.773 -2.671,1.25 -3.822,1.429 -1.15,0.178 -2.166,0.156 -3.048,-0.07 -0.882,-0.224 -1.639,-0.601 -2.267,-1.128 -0.629,-0.527 -1.12,-1.11 -1.474,-1.749 -0.616,-1.112 -0.832,-2.312 -0.645,-3.6 0.185,-1.288 0.625,-2.634 1.32,-4.042 0.695,-1.408 1.565,-2.865 2.612,-4.374 1.046,-1.508 2.116,-3.037 3.21,-4.584 1.094,-1.548 2.142,-3.118 3.143,-4.709 1,-1.589 1.802,-3.172 2.406,-4.744 C 24.54,10.134 24.866,8.581 24.916,7.045 24.964,5.511 24.589,4.023 23.791,2.579 22.843,0.869 21.6,-0.516 20.059,-1.575 18.518,-2.633 16.728,-3.305 14.69,-3.59 12.651,-3.875 10.391,-3.735 7.911,-3.168 5.431,-2.603 2.794,-1.547 0,0"
             style="fill:#231f20;fill-opacity:1;fill-rule:nonzero;stroke:none"
             id="path28" />
        </g>
        <g
           id="g30"
           transform="translate(354.366,128.2263)">
          <path
             d="m 0,0 11.92,-0.655 15.462,-33.617 18.789,31.738 11.661,-0.641 -2.625,-47.84 -12.214,0.67 1.712,31.189 -18.01,-30.293 -4.709,0.258 -15.118,32.465 -1.731,-31.54 -7.762,0.425 z"
             style="fill:#231f20;fill-opacity:1;fill-rule:nonzero;stroke:none"
             id="path32" />
        </g>
        <g
           id="g34"
           transform="translate(421.4118,128.9496)">
          <path
             d="M 0,0 11.93,2.702 22.514,-44.026 10.583,-46.729 Z"
             style="fill:#231f20;fill-opacity:1;fill-rule:nonzero;stroke:none"
             id="path36" />
        </g>
        <g
           id="g38"
           transform="translate(443.3398,133.1686)">
          <path
             d="m 0,0 7.003,3.541 39.162,-14.324 -13.746,27.178 6.839,3.46 21.942,-43.387 -4.701,-2.378 -42.8,16.049 14.863,-29.386 -6.938,-3.509 z"
             style="fill:#231f20;fill-opacity:1;fill-rule:nonzero;stroke:none"
             id="path40" />
        </g>
        <g
           id="g42"
           transform="translate(519.2951,145.5255)">
          <path
             d="M 0,0 10.384,10.87 -5.922,16.205 Z M -14.086,30.679 37.462,13.844 28.809,4.786 15.029,9.287 1.617,-4.753 6.54,-18.526 0.788,-24.547 -17.751,26.841 Z"
             style="fill:#231f20;fill-opacity:1;fill-rule:nonzero;stroke:none"
             id="path44" />
        </g>
        <g
           id="g46"
           transform="translate(574.4192,191.7321)">
          <path
             d="m 0,0 c -1.248,-2.724 -2.647,-4.967 -4.194,-6.73 -1.546,-1.764 -3.183,-3.115 -4.91,-4.052 -1.725,-0.939 -3.527,-1.49 -5.404,-1.657 -1.877,-0.165 -3.776,0.003 -5.696,0.505 l 3.548,7.737 c 1.214,-0.233 2.409,-0.309 3.588,-0.227 1.177,0.081 2.296,0.358 3.355,0.832 1.06,0.474 2.036,1.161 2.928,2.062 0.893,0.901 1.668,2.067 2.322,3.495 0.431,0.939 0.761,1.915 0.994,2.93 0.232,1.015 0.297,1.992 0.196,2.929 -0.1,0.939 -0.397,1.79 -0.889,2.557 -0.49,0.764 -1.249,1.383 -2.277,1.854 -1.285,0.59 -2.588,0.768 -3.914,0.538 -1.322,-0.23 -2.658,-0.727 -4.004,-1.488 -1.347,-0.76 -2.707,-1.704 -4.079,-2.831 -1.372,-1.128 -2.764,-2.286 -4.178,-3.476 -1.413,-1.188 -2.85,-2.327 -4.308,-3.414 -1.457,-1.089 -2.933,-1.979 -4.431,-2.671 -1.496,-0.692 -3.017,-1.102 -4.568,-1.229 -1.548,-0.129 -3.112,0.172 -4.699,0.899 -1.733,0.795 -3.152,1.925 -4.256,3.391 -1.103,1.463 -1.852,3.193 -2.247,5.184 -0.395,1.991 -0.402,4.211 -0.018,6.656 0.382,2.446 1.208,5.053 2.478,7.821 1.044,2.279 2.291,4.206 3.74,5.784 1.45,1.578 3.028,2.833 4.739,3.765 1.711,0.933 3.497,1.552 5.36,1.859 1.866,0.307 3.728,0.344 5.592,0.112 l -3.21,-7 c -1.212,0.07 -2.412,0.052 -3.6,-0.052 -1.188,-0.103 -2.315,-0.384 -3.379,-0.842 -1.066,-0.458 -2.062,-1.148 -2.992,-2.073 -0.929,-0.925 -1.748,-2.158 -2.454,-3.698 -0.665,-1.451 -1.043,-2.759 -1.134,-3.918 -0.093,-1.161 0.006,-2.173 0.298,-3.035 0.291,-0.863 0.724,-1.589 1.296,-2.176 0.573,-0.587 1.192,-1.033 1.854,-1.336 1.158,-0.531 2.37,-0.655 3.64,-0.372 1.27,0.282 2.58,0.823 3.932,1.622 1.351,0.799 2.738,1.778 4.163,2.934 1.425,1.157 2.867,2.34 4.329,3.548 1.461,1.208 2.946,2.37 4.457,3.49 1.51,1.117 3.027,2.036 4.549,2.757 1.523,0.721 3.048,1.163 4.573,1.328 1.528,0.164 3.041,-0.096 4.539,-0.784 1.777,-0.815 3.252,-1.951 4.424,-3.406 C 1.226,18.665 2.031,16.931 2.469,14.919 2.906,12.908 2.937,10.644 2.562,8.128 2.186,5.612 1.331,2.902 0,0"
             style="fill:#231f20;fill-opacity:1;fill-rule:nonzero;stroke:none"
             id="path48" />
        </g>
        <g
           id="g50"
           transform="translate(378.0814,280.4544)">
          <path
             d="m 0,0 -3.345,-0.622 1.089,-3.19 1.789,-4.978 3.734,-2.651 7.701,-1.316 3.695,0.797 5.173,-0.797 8.168,0.467 7.079,2.255 3.188,2.567 0.623,4.667 -1.089,4.201 -1.322,3.705 0.078,3.607 -5.757,-3.607 -2.566,3.218 -4.98,2.256 -1.011,3.034 -3.344,-5.056 0.7,-3.112 -3.397,-0.34 -1.543,1.662 2.139,2.957 -1.633,5.289 -4.434,3.501 0.078,-6.302 L 9.257,10.268 5.756,7.312 4.589,6.145 -0.622,9.257 0,4.044 Z"
             style="fill:#f7921d;fill-opacity:1;fill-rule:nonzero;stroke:none"
             id="path52" />
        </g>
        <g
           id="g54"
           transform="translate(396.1071,315.6698)">
          <path
             d="M 0,0 C 13.637,0 24.693,1.417 24.693,3.165 24.693,4.912 13.637,6.328 0,6.328 -13.637,6.328 -24.693,4.912 -24.693,3.165 -24.693,1.417 -13.637,0 0,0"
             style="fill:#231f20;fill-opacity:1;fill-rule:nonzero;stroke:none"
             id="path56" />
        </g>
        <g
           id="g58"
           transform="translate(585.63,264.3771)">
          <path
             d="m 0,0 h -16.855 l -1.418,3.373 v 3.893 l 2.103,1.429 7.065,0.958 8.678,-3.327 2.196,-3.381 z m -23.71,-0.556 h -13.63 l -12.317,-4.48 -8.915,2.785 -27.644,-2.941 -21.841,3.119 -20.973,0.352 v 114.217 h 14.887 v 15.559 h -14.887 -121.143 -14.887 v -15.559 h 14.887 V 0.305 l -15.96,0.267 -34.553,-16.8 c -26.87,1.95 -50.468,4.243 -62.397,5.464 l -1.093,1.921 6.238,7.97 v 12.961 l 4.727,0.859 16.949,16.949 -1.777,19.555 8.169,11.671 -1.169,11.111 4.569,6.854 24.254,8.662 9.232,10.653 -3.126,13.131 1.902,8.563 22.833,16.979 2.347,16.418 20.941,17.545 10.308,15.192 17.304,-0.621 13.343,7.527 H -194 l 21.428,-15.607 27.138,-12.702 28.455,-3.416 20.989,-22.646 11.7,-23.984 19.794,-18.663 V 82.477 l 6.408,-8.736 v -11.29 l 21.512,-12.551 6.251,-19.317 9.951,-10.537 1.866,-5.038 -6.301,-4.282 V 2.057 Z m -118.77,-0.77 -9.481,0.137 v 103.876 h -75.281 V -0.109 l -9.481,0.137 v 112.468 h 94.243 z m -24.272,-11.559 h -45.535 l 2.577,5.986 41.071,-0.68 z m -50.03,21.091 h 5.854 c 0.608,0 1.159,-0.316 1.497,-0.822 0.117,-0.176 0.247,-0.356 0.391,-0.54 3.97,-5.074 14.799,-3.492 15.217,-3.429 0.284,0.031 0.564,0.066 0.84,0.103 0.149,0.02 0.294,0.041 0.438,0.063 1.898,-0.755 4.369,-1.124 7.532,-1.124 0.208,0 0.419,0.001 0.633,0.004 0.275,0.005 0.556,0.011 0.803,0.021 h 0.014 c 0.63,0 11.395,0.08 14.592,5.337 0.081,0.133 0.138,0.257 0.208,0.387 h 6.342 c 0.982,0 1.778,-0.796 1.778,-1.778 V 1.806 c 0,-0.982 -0.796,-1.778 -1.778,-1.778 h -54.361 c -0.981,0 -1.778,0.796 -1.778,1.778 v 4.622 c 0,0.982 0.797,1.778 1.778,1.778 m 7.821,6.431 c 1.521,-0.309 2.967,-0.874 3.692,-1.869 0.288,-0.397 0.807,-0.551 1.265,-0.378 0.459,0.173 0.745,0.633 0.7,1.122 -0.017,0.177 -0.232,1.768 -2.599,2.803 -0.988,0.431 -1.378,1.029 -0.915,3.25 0.248,1.194 0.136,2.938 -0.268,4.508 1.689,-0.951 3.236,-1.993 3.638,-2.697 0.282,-0.495 0.898,-0.688 1.411,-0.445 0.371,0.175 0.6,0.535 0.622,0.921 0.103,0.199 0.356,0.568 0.5,0.78 0.149,0.22 0.286,0.42 0.371,0.566 0.035,0.061 0.044,0.07 0.066,0.138 0.006,0.009 0.522,1.037 3.128,1.973 0.618,0.222 1.442,0.75 1.853,1.999 0.551,1.671 0.136,4.146 -0.497,6.303 3.492,-3.362 4.151,-5.529 4.184,-6.628 0.032,-1.066 -0.494,-1.542 -0.494,-1.544 -0.045,-0.036 -0.088,-0.074 -0.129,-0.119 -0.983,-1.069 -1.428,-2.113 -1.323,-3.101 0.111,-1.037 0.784,-1.655 1.179,-1.935 0.184,-0.127 0.315,-0.19 0.315,-0.19 0.172,-0.08 0.394,-0.117 0.586,-0.106 0.07,0.007 1.738,0.13 3.275,-1.405 0.008,-0.007 0.07,-0.075 0.078,-0.082 0.233,-0.234 0.593,-0.314 0.918,-0.278 0.329,0.036 0.651,0.257 0.827,0.536 0.781,0.933 0.479,1.382 -1.194,3.873 -0.441,0.67 0.519,3.454 1.651,5.862 0.081,-0.685 0.25,-1.353 0.54,-1.945 0.546,-1.111 1.461,-1.815 2.643,-2.038 2.376,-0.448 2.376,-0.448 3.063,-1.213 0.214,-0.24 0.477,-0.532 0.832,-0.895 0.195,-0.4 0.505,-1.811 0.528,-2.216 -0.051,-0.501 0.252,-0.981 0.743,-1.144 0.546,-0.178 1.126,0.09 1.345,0.613 0.339,0.809 2.293,2.527 4.327,4.112 -0.399,-1.4 -0.702,-2.94 -0.484,-4.16 0.324,-1.813 0.102,-2.725 -0.788,-3.252 -2.173,-1.282 -2.212,-2.763 -2.199,-3.047 0.025,-0.485 0.368,-0.894 0.84,-1.006 0.472,-0.111 0.961,0.103 1.199,0.528 0.571,1.016 1.9,1.742 3.347,2.242 -0.337,-0.746 -0.294,-1.551 -0.076,-2.529 0.223,-0.998 0.434,-1.939 -0.571,-3.594 -2.143,-3.523 -9.894,-4.29 -12.763,-4.29 h -0.017 c -0.273,-0.01 -0.541,-0.016 -0.801,-0.02 -3.272,-0.048 -5.822,0.308 -7.563,1.062 -0.137,0.06 -0.285,0.089 -0.433,0.089 -0.055,0 -0.111,-0.003 -0.165,-0.012 -0.23,-0.035 -0.46,-0.07 -0.697,-0.102 -0.257,-0.034 -0.523,-0.067 -0.835,-0.103 -2.78,-0.42 -10.573,-0.769 -13.219,2.612 -1.264,1.615 -1.191,2.706 -1.119,3.76 0.073,1.084 -0.016,1.948 -0.517,2.691 m 26.503,66.01 c 1.412,-2.424 3.457,-4.265 4.564,-6.941 2.332,-4.657 0.098,-10.319 -5.387,-10.731 6.341,3.296 4.377,8.219 0.49,12.61 -1.608,1.886 -3.253,3.913 -3.061,6.56 0.159,2.744 2.559,5.214 5.315,5.263 1.858,-0.07 3.163,-1.263 3.84,-2.537 -1.238,0.751 -2.64,1.171 -3.665,0.82 -1.941,-0.745 -3.123,-3.085 -2.096,-5.044 m -7.144,-20.715 c 15.994,0 28.959,-2.066 28.959,-4.615 V 53.766 49.112 47.681 34.668 c 0,-6.298 -4.11,-11.624 -9.789,-13.479 0.163,1.305 0.709,2.923 1.043,3.91 0.196,0.582 0.339,1.003 0.405,1.31 0.094,0.439 -0.089,0.889 -0.462,1.137 -0.373,0.246 -0.859,0.242 -1.226,-0.014 -0.732,-0.512 -3.371,-2.386 -5.398,-4.238 -0.174,-0.115 -0.347,-0.233 -0.508,-0.36 -0.044,0.149 -0.116,0.308 -0.223,0.474 -0.593,0.912 -1.389,1.752 -2.537,2.34 -0.44,0.281 -0.977,0.45 -1.855,0.636 -0.03,0.007 -0.056,0.016 -0.087,0.022 -0.017,0.003 -0.039,0.007 -0.056,0.01 -0.347,0.071 -0.728,0.147 -1.199,0.235 -0.509,0.098 -0.847,0.362 -1.091,0.86 -0.78,1.585 -0.163,4.511 0.183,5.192 0.259,0.511 0.078,1.134 -0.411,1.428 -0.441,0.261 -0.99,0.181 -1.337,-0.171 -0.047,-0.046 -0.201,-0.199 -0.42,-0.43 -1.121,-1.168 -5.325,-8.51 -4.213,-11.625 -0.672,0.199 -1.245,0.253 -1.619,0.263 -0.069,0.07 -0.134,0.166 -0.146,0.283 -0.014,0.116 0.003,0.557 0.721,1.353 0.314,0.283 1.24,1.273 1.237,3.09 -0.003,3.17 -2.81,6.966 -8.34,11.283 -0.422,0.329 -1.019,0.305 -1.412,-0.06 -0.391,-0.364 -0.461,-0.958 -0.163,-1.403 0.559,-0.838 2.741,-6.415 1.98,-8.724 -0.147,-0.447 -0.355,-0.572 -0.52,-0.63 -3.213,-1.155 -4.135,-2.6 -4.37,-3.115 -0.067,-0.106 -0.16,-0.241 -0.258,-0.385 -0.014,-0.02 -0.027,-0.04 -0.042,-0.06 -1.945,1.666 -5.281,3.261 -6.362,3.757 -0.094,0.05 -0.189,0.09 -0.286,0.121 -0.55,0.172 -1.14,-0.113 -1.346,-0.651 0.502,-0.413 1.858,-3.996 1.884,-5.845 -3.625,1.191 -6.604,3.803 -8.262,7.188 -0.188,0.382 -0.358,0.773 -0.511,1.174 -0.245,0.642 -0.443,1.305 -0.594,1.988 -0.045,0.206 -0.087,0.412 -0.121,0.621 -10e-4,0.002 -10e-4,0.005 -10e-4,0.007 -0.002,0.006 -0.002,0.007 -0.002,0.007 -0.133,0.778 -0.203,1.578 -0.203,2.394 v 20.755 10e-4 c 0,2.549 12.965,4.615 28.958,4.615 m -4.609,29.472 c -0.42,2.622 -2.037,4.065 -4.742,2.968 -0.855,-0.292 -1.698,-0.721 -2.521,-1.218 1.211,1.641 2.794,3.095 5.025,3.266 5.197,-0.152 6.098,-7.23 4.051,-10.892 -1.257,-2.821 -3.386,-4.842 -5.504,-6.945 -4.567,-4.55 -5.169,-12.025 2.385,-13.524 -4.331,-1.173 -8.511,2.632 -8.494,7.095 0.009,4.387 2.705,7.862 5.739,10.648 2.2,2.276 4.506,5.38 4.061,8.602 m 36.636,-123.866 h -64.056 l 5.101,11.774 h 53.853 z m 9.033,-20.844 h -82.122 l 4.783,11.041 h 72.556 z m -218.962,39.078 -3.349,-0.422 h -14.544 l -2.726,3.341 0.746,1.034 6.725,-1.044 7.113,6.207 1.077,-0.386 0.439,-0.768 2.759,-3.388 2.365,-1.565 c 0.035,-0.004 -0.193,-1.256 -0.605,-3.009 M 3.118,12.862 h -8.575 l -7.01,6.252 -0.474,-0.322 -1.768,4.772 -9.853,10.433 -6.565,20.29 -20.425,11.917 v 9.677 l -6.409,8.737 v 14.321 l -20.979,19.779 -11.599,23.78 -23.279,25.117 -29.794,3.574 -25.62,11.994 -22.641,16.488 h -16.975 l -13.233,-7.466 -19.076,0.686 -11.826,-17.428 -22.162,-18.569 -2.314,-16.2 -22.601,-16.805 -2.756,-12.407 2.698,-11.334 -5.913,-6.822 -24.676,-8.812 -7.079,-10.62 1.161,-11.025 -8.14,-11.628 1.717,-18.888 -13.341,-13.341 -8.086,-1.469 V 1.379 l -3.195,-4.082 -0.309,0.543 -6.968,2.492 -7.709,-6.727 -7.674,1.192 -6.03,-8.348 7.861,-9.635 h 22.722 l 1.525,5.972 c 11.932,-1.224 36.273,-3.598 63.971,-5.596 l 0.875,-0.063 34.726,16.884 44.366,-0.734 -29.632,-68.46 10.693,0.058 4.339,10.016 h 90.622 l 4.34,-10.017 10.867,-0.05 -29.381,67.429 49.689,-0.824 22.442,-3.205 27.109,2.883 9.726,-3.04 13.311,4.841 h 19.207 l 1.576,0.557 H 3.697 l 5.777,9.616 z"
             style="fill:#231f20;fill-opacity:1;fill-rule:nonzero;stroke:none"
             id="path60" />
        </g>
        <g
           id="g62"
           transform="translate(232.1045,440.3735)">
          <path
             d="m 0,0 c -0.799,-1.057 -1.349,-2.174 -1.65,-3.351 -0.302,-1.177 -0.347,-2.354 -0.136,-3.531 0.211,-1.177 0.675,-2.32 1.393,-3.43 0.718,-1.11 1.69,-2.128 2.914,-3.054 1.234,-0.932 2.494,-1.576 3.781,-1.933 1.287,-0.357 2.537,-0.457 3.749,-0.3 1.212,0.156 2.354,0.556 3.428,1.198 1.073,0.642 2.009,1.491 2.808,2.548 0.579,0.767 0.999,1.537 1.257,2.31 0.26,0.772 0.382,1.552 0.367,2.338 l -6.144,4.644 -2.507,-3.316 -1.044,0.789 4.734,6.263 7.703,-5.822 c -0.113,-0.718 -0.26,-1.416 -0.442,-2.096 -0.181,-0.679 -0.429,-1.374 -0.744,-2.084 -0.316,-0.71 -0.709,-1.454 -1.179,-2.233 -0.472,-0.779 -1.053,-1.627 -1.746,-2.543 -0.732,-0.969 -1.536,-1.808 -2.41,-2.517 -0.875,-0.709 -1.792,-1.285 -2.751,-1.73 -0.959,-0.445 -1.94,-0.759 -2.943,-0.942 -1.004,-0.183 -1.999,-0.23 -2.984,-0.143 -0.986,0.088 -1.949,0.307 -2.888,0.657 -0.94,0.35 -1.823,0.838 -2.651,1.464 -0.819,0.619 -1.538,1.331 -2.154,2.136 -0.616,0.805 -1.117,1.671 -1.502,2.599 -0.385,0.928 -0.645,1.899 -0.778,2.913 -0.133,1.014 -0.13,2.043 0.008,3.087 0.138,1.044 0.42,2.084 0.843,3.121 0.423,1.037 1.001,2.039 1.733,3.008 0.7,0.925 1.473,1.687 2.319,2.285 0.847,0.599 1.722,1.066 2.626,1.4 C 3.913,4.07 4.825,4.284 5.747,4.376 6.668,4.469 7.56,4.473 8.423,4.388 L 8.31,2.48 C 6.333,2.812 4.675,2.775 3.336,2.368 1.998,1.96 0.885,1.171 0,0"
             style="fill:#231f20;fill-opacity:1;fill-rule:nonzero;stroke:none"
             id="path64" />
        </g>
        <g
           id="g66"
           transform="translate(250.1211,455.2305)">
          <path
             d="m 0,0 8.502,-8.573 c 0.296,-0.298 0.644,-0.512 1.046,-0.642 0.402,-0.131 0.821,-0.174 1.259,-0.128 0.437,0.045 0.871,0.168 1.301,0.369 0.431,0.201 0.83,0.485 1.198,0.85 0.236,0.233 0.438,0.535 0.607,0.905 0.17,0.37 0.296,0.772 0.38,1.205 0.083,0.433 0.119,0.88 0.105,1.341 -0.014,0.46 -0.075,0.902 -0.182,1.324 L 5.492,5.447 7.867,7.803 19.811,-4.239 17.435,-6.595 15.196,-4.337 c 0.13,-0.555 0.188,-1.142 0.174,-1.764 -0.015,-0.62 -0.093,-1.227 -0.236,-1.819 -0.143,-0.594 -0.344,-1.151 -0.604,-1.673 -0.26,-0.522 -0.566,-0.958 -0.919,-1.308 -0.525,-0.521 -1.116,-0.912 -1.773,-1.176 -0.657,-0.262 -1.325,-0.396 -2.005,-0.401 -0.679,-0.005 -1.344,0.121 -1.995,0.377 -0.651,0.256 -1.229,0.639 -1.734,1.149 l -8.503,8.573 z"
             style="fill:#231f20;fill-opacity:1;fill-rule:nonzero;stroke:none"
             id="path68" />
        </g>
        <g
           id="g70"
           transform="translate(277.5137,469.9902)">
          <path
             d="m 0,0 c -0.288,-0.421 -0.575,-0.869 -0.862,-1.345 -0.287,-0.476 -0.55,-0.965 -0.788,-1.467 -0.239,-0.501 -0.449,-1.004 -0.629,-1.509 -0.18,-0.505 -0.303,-0.993 -0.369,-1.465 -0.066,-0.472 -0.065,-0.913 0.002,-1.322 0.068,-0.41 0.224,-0.771 0.469,-1.084 0.258,-0.331 0.562,-0.595 0.911,-0.791 0.35,-0.197 0.711,-0.328 1.085,-0.393 0.373,-0.066 0.74,-0.06 1.099,0.018 0.36,0.077 0.679,0.225 0.957,0.442 0.296,0.231 0.549,0.491 0.757,0.78 0.209,0.289 0.387,0.599 0.534,0.932 0.147,0.331 0.279,0.683 0.396,1.055 0.116,0.371 0.227,0.758 0.332,1.162 z M 7.315,-6.812 C 6.831,-6.91 6.345,-6.894 5.858,-6.763 5.37,-6.632 4.967,-6.362 4.648,-5.953 4.518,-6.433 4.401,-6.916 4.298,-7.402 4.195,-7.89 4.047,-8.373 3.854,-8.853 3.661,-9.332 3.4,-9.806 3.072,-10.272 c -0.329,-0.467 -0.777,-0.921 -1.343,-1.363 -0.521,-0.408 -1.06,-0.692 -1.615,-0.851 -0.554,-0.16 -1.093,-0.206 -1.615,-0.138 -0.523,0.068 -1.024,0.244 -1.505,0.527 -0.48,0.284 -0.904,0.66 -1.271,1.131 -0.448,0.574 -0.74,1.18 -0.873,1.818 -0.134,0.638 -0.144,1.292 -0.03,1.962 0.114,0.671 0.322,1.352 0.623,2.042 0.302,0.69 0.661,1.378 1.08,2.062 0.418,0.684 0.873,1.357 1.364,2.021 0.49,0.663 0.974,1.299 1.45,1.91 L -1.315,1.684 C -1.791,2.293 -2.235,2.773 -2.648,3.123 -3.062,3.473 -3.459,3.705 -3.843,3.819 -4.226,3.933 -4.602,3.934 -4.969,3.822 -5.337,3.709 -5.717,3.5 -6.108,3.195 -6.483,2.903 -6.769,2.561 -6.967,2.168 -7.165,1.775 -7.286,1.361 -7.332,0.927 c -0.046,-0.435 -0.014,-0.88 0.096,-1.334 0.109,-0.454 0.283,-0.888 0.524,-1.303 l -2.429,-1.896 c -0.379,0.628 -0.582,1.296 -0.609,2.004 -0.026,0.707 0.087,1.409 0.342,2.105 0.255,0.697 0.634,1.374 1.136,2.032 0.501,0.658 1.092,1.252 1.771,1.782 0.87,0.68 1.667,1.165 2.392,1.458 0.724,0.292 1.383,0.425 1.978,0.399 0.595,-0.026 1.14,-0.199 1.635,-0.52 C 0,5.333 0.455,4.908 0.869,4.377 l 6.442,-8.251 c 0.319,-0.409 0.723,-0.679 1.21,-0.81 0.487,-0.13 0.973,-0.147 1.457,-0.049 z"
             style="fill:#231f20;fill-opacity:1;fill-rule:nonzero;stroke:none"
             id="path72" />
        </g>
        <g
           id="g74"
           transform="translate(284.0161,490.0752)">
          <path
             d="m 0,0 0.813,0.512 3.073,-4.876 3.195,2.014 0.768,-1.219 -3.195,-2.014 6.368,-10.102 c 0.135,-0.215 0.302,-0.391 0.499,-0.528 0.197,-0.137 0.407,-0.232 0.631,-0.287 0.223,-0.055 0.454,-0.063 0.691,-0.024 0.237,0.038 0.468,0.128 0.692,0.269 0.317,0.2 0.557,0.462 0.718,0.786 0.162,0.323 0.267,0.664 0.316,1.021 l 1.014,-0.026 c 0.026,-0.911 -0.153,-1.755 -0.538,-2.532 -0.384,-0.778 -1.039,-1.458 -1.963,-2.04 -0.477,-0.301 -0.944,-0.481 -1.402,-0.541 -0.458,-0.061 -0.894,-0.016 -1.308,0.134 -0.415,0.15 -0.806,0.393 -1.174,0.729 -0.368,0.335 -0.708,0.751 -1.021,1.246 l -6.367,10.103 -2.494,-1.572 -0.336,0.532 2.062,2.259 -2.57,4.077 z"
             style="fill:#231f20;fill-opacity:1;fill-rule:nonzero;stroke:none"
             id="path76" />
        </g>
        <g
           id="g78"
           transform="translate(311.4067,492.3208)">
          <path
             d="M 0,0 C -0.282,0.575 -0.646,1.061 -1.092,1.457 -1.539,1.853 -2.029,2.144 -2.563,2.331 -3.098,2.518 -3.654,2.599 -4.232,2.574 -4.81,2.549 -5.372,2.402 -5.917,2.135 -6.373,1.912 -6.759,1.596 -7.076,1.188 -7.393,0.781 -7.625,0.316 -7.775,-0.206 c -0.15,-0.523 -0.21,-1.084 -0.18,-1.684 0.03,-0.6 0.165,-1.197 0.408,-1.792 z m 2.217,-12.121 c -1.031,-0.505 -2.095,-0.787 -3.192,-0.845 -1.096,-0.058 -2.145,0.079 -3.145,0.413 -1,0.334 -1.915,0.853 -2.747,1.558 -0.831,0.705 -1.495,1.564 -1.991,2.575 -0.598,1.22 -0.972,2.435 -1.123,3.646 -0.151,1.211 -0.084,2.354 0.2,3.428 0.285,1.074 0.781,2.049 1.49,2.926 0.708,0.875 1.627,1.59 2.757,2.145 0.992,0.485 1.99,0.757 2.995,0.814 1.006,0.056 1.953,-0.064 2.842,-0.36 C 1.192,3.883 1.992,3.43 2.704,2.82 3.415,2.209 3.977,1.483 4.39,0.64 L -6.957,-4.923 c 0.501,-1.022 1.097,-1.904 1.787,-2.648 0.691,-0.743 1.429,-1.316 2.216,-1.717 0.787,-0.401 1.596,-0.62 2.425,-0.656 0.829,-0.036 1.635,0.138 2.419,0.522 0.654,0.321 1.232,0.736 1.732,1.246 0.5,0.509 0.91,1.058 1.231,1.646 0.32,0.588 0.545,1.19 0.673,1.806 0.128,0.616 0.145,1.196 0.051,1.74 L 6.644,-2.94 C 6.81,-3.831 6.817,-4.737 6.667,-5.659 6.517,-6.581 6.242,-7.457 5.843,-8.286 5.444,-9.115 4.936,-9.865 4.318,-10.537 3.7,-11.208 3,-11.737 2.217,-12.121"
             style="fill:#231f20;fill-opacity:1;fill-rule:nonzero;stroke:none"
             id="path80" />
        </g>
        <g
           id="g82"
           transform="translate(324.5562,504.3291)">
          <path
             d="M 0,0 0.917,0.284 1.956,-3.071 C 2.229,-2.5 2.563,-1.932 2.954,-1.366 3.345,-0.8 3.767,-0.277 4.219,0.204 4.671,0.685 5.144,1.1 5.637,1.449 6.13,1.798 6.625,2.049 7.12,2.203 7.595,2.349 8.104,2.414 8.646,2.397 9.189,2.38 9.716,2.283 10.228,2.106 10.739,1.929 11.209,1.679 11.639,1.355 12.068,1.031 12.407,0.636 12.655,0.17 c 0.117,0.556 0.346,1.115 0.686,1.677 0.341,0.562 0.749,1.084 1.224,1.566 0.475,0.482 1.003,0.911 1.586,1.288 0.583,0.377 1.181,0.66 1.792,0.849 0.612,0.19 1.226,0.232 1.842,0.128 C 20.4,5.574 20.98,5.354 21.523,5.02 22.065,4.685 22.548,4.244 22.972,3.699 23.395,3.154 23.714,2.533 23.929,1.837 L 27.463,-9.587 24.251,-10.581 20.854,0.4 C 20.714,0.854 20.504,1.26 20.226,1.619 19.947,1.978 19.628,2.269 19.27,2.494 18.912,2.718 18.528,2.865 18.12,2.935 17.71,3.005 17.311,2.979 16.921,2.859 16.478,2.722 16.045,2.521 15.624,2.258 15.203,1.995 14.819,1.694 14.473,1.356 14.127,1.018 13.828,0.657 13.577,0.273 13.326,-0.111 13.149,-0.492 13.047,-0.871 l 3.72,-12.025 -3.212,-0.994 -3.397,10.981 C 10.018,-2.455 9.805,-2.05 9.521,-1.692 9.238,-1.335 8.917,-1.045 8.558,-0.82 8.2,-0.596 7.813,-0.45 7.399,-0.381 6.985,-0.313 6.583,-0.339 6.193,-0.459 5.781,-0.587 5.376,-0.782 4.978,-1.043 4.579,-1.306 4.204,-1.606 3.853,-1.946 3.501,-2.287 3.189,-2.652 2.917,-3.042 2.645,-3.433 2.44,-3.816 2.303,-4.194 l 3.72,-12.026 -3.228,-0.998 -4.826,15.601 z"
             style="fill:#231f20;fill-opacity:1;fill-rule:nonzero;stroke:none"
             id="path84" />
        </g>
        <g
           id="g86"
           transform="translate(367.8564,507.2358)">
          <path
             d="M 0,0 C -0.458,-0.226 -0.928,-0.475 -1.411,-0.749 -1.895,-1.023 -2.363,-1.32 -2.817,-1.64 -3.271,-1.96 -3.701,-2.296 -4.105,-2.647 -4.51,-2.999 -4.857,-3.364 -5.146,-3.743 -5.435,-4.122 -5.65,-4.506 -5.792,-4.896 c -0.143,-0.39 -0.184,-0.781 -0.125,-1.174 0.063,-0.415 0.199,-0.794 0.407,-1.137 0.208,-0.342 0.458,-0.634 0.752,-0.874 0.293,-0.241 0.615,-0.416 0.967,-0.524 0.351,-0.109 0.702,-0.137 1.051,-0.084 0.371,0.056 0.719,0.159 1.042,0.308 0.323,0.15 0.631,0.333 0.922,0.55 0.291,0.217 0.578,0.458 0.862,0.725 0.284,0.266 0.57,0.549 0.86,0.85 z m 3.032,-9.525 c -0.47,0.152 -0.886,0.405 -1.246,0.758 -0.36,0.353 -0.579,0.786 -0.657,1.3 -0.348,-0.355 -0.687,-0.719 -1.016,-1.092 -0.328,-0.374 -0.695,-0.722 -1.098,-1.045 -0.403,-0.324 -0.863,-0.608 -1.379,-0.854 -0.515,-0.246 -1.128,-0.422 -1.838,-0.529 -0.654,-0.099 -1.263,-0.082 -1.825,0.05 -0.561,0.133 -1.053,0.358 -1.475,0.674 -0.422,0.315 -0.773,0.715 -1.052,1.198 -0.28,0.482 -0.464,1.018 -0.553,1.607 -0.109,0.721 -0.065,1.392 0.131,2.014 0.196,0.621 0.508,1.196 0.937,1.725 0.428,0.528 0.943,1.019 1.544,1.472 0.602,0.455 1.252,0.877 1.953,1.268 0.7,0.39 1.427,0.754 2.18,1.091 0.753,0.337 1.487,0.655 2.201,0.953 l -0.158,1.048 c -0.116,0.764 -0.268,1.4 -0.456,1.908 -0.189,0.507 -0.422,0.904 -0.7,1.192 C -1.753,5.5 -2.08,5.685 -2.455,5.768 -2.831,5.851 -3.264,5.855 -3.755,5.781 -4.225,5.71 -4.642,5.552 -5.007,5.307 -5.372,5.062 -5.681,4.761 -5.934,4.405 -6.187,4.048 -6.377,3.645 -6.505,3.196 -6.633,2.747 -6.693,2.282 -6.688,1.803 l -3.046,-0.46 c -0.022,0.734 0.129,1.415 0.453,2.045 0.323,0.629 0.767,1.185 1.331,1.667 0.563,0.481 1.225,0.885 1.986,1.213 0.76,0.327 1.566,0.555 2.417,0.684 1.092,0.165 2.025,0.197 2.8,0.096 C 0.027,6.948 0.667,6.74 1.173,6.426 1.678,6.111 2.068,5.692 2.342,5.17 2.617,4.647 2.805,4.053 2.905,3.388 L 4.47,-6.962 c 0.077,-0.514 0.297,-0.947 0.657,-1.3 0.36,-0.353 0.775,-0.606 1.246,-0.758 z"
             style="fill:#231f20;fill-opacity:1;fill-rule:nonzero;stroke:none"
             id="path88" />
        </g>
        <g
           id="g90"
           transform="translate(384.3682,498.8501)">
          <path
             d="m 0,0 -3.373,-0.205 -1.493,24.601 2.339,1.104 0.975,0.059 z"
             style="fill:#231f20;fill-opacity:1;fill-rule:nonzero;stroke:none"
             id="path92" />
        </g>
        <g
           id="g94"
           transform="translate(402.4648,508.7998)">
          <path
             d="m 0,0 c -0.49,-0.141 -0.998,-0.304 -1.521,-0.488 -0.526,-0.184 -1.04,-0.394 -1.543,-0.628 -0.504,-0.235 -0.985,-0.489 -1.446,-0.764 -0.461,-0.274 -0.867,-0.572 -1.219,-0.894 -0.351,-0.322 -0.63,-0.662 -0.839,-1.02 -0.209,-0.359 -0.319,-0.737 -0.329,-1.135 -0.012,-0.419 0.054,-0.816 0.198,-1.19 0.144,-0.374 0.34,-0.705 0.586,-0.993 0.246,-0.289 0.533,-0.518 0.859,-0.687 0.326,-0.169 0.666,-0.259 1.02,-0.268 0.375,-0.011 0.736,0.029 1.08,0.119 0.345,0.09 0.679,0.215 1.006,0.378 0.324,0.162 0.648,0.349 0.976,0.561 0.326,0.212 0.658,0.44 0.996,0.685 z m 1.299,-9.911 c -0.436,0.233 -0.799,0.555 -1.092,0.966 -0.293,0.412 -0.432,0.877 -0.418,1.396 -0.404,-0.287 -0.803,-0.586 -1.191,-0.895 -0.391,-0.31 -0.813,-0.588 -1.266,-0.835 -0.455,-0.247 -0.957,-0.446 -1.508,-0.596 -0.551,-0.151 -1.185,-0.216 -1.904,-0.196 -0.661,0.018 -1.257,0.142 -1.787,0.373 -0.529,0.23 -0.973,0.537 -1.333,0.923 -0.359,0.385 -0.633,0.84 -0.823,1.365 -0.19,0.524 -0.277,1.084 -0.26,1.681 0.02,0.728 0.181,1.381 0.485,1.958 0.303,0.577 0.712,1.087 1.227,1.532 0.515,0.444 1.108,0.836 1.78,1.177 0.672,0.339 1.389,0.64 2.146,0.901 0.758,0.261 1.538,0.49 2.338,0.689 0.801,0.199 1.58,0.381 2.336,0.548 l 0.03,1.06 C 0.08,2.908 0.043,3.562 -0.053,4.094 -0.148,4.627 -0.309,5.06 -0.531,5.392 -0.754,5.723 -1.043,5.963 -1.396,6.111 -1.752,6.259 -2.178,6.34 -2.674,6.354 -3.148,6.367 -3.588,6.285 -3.99,6.109 -4.393,5.932 -4.75,5.691 -5.062,5.385 -5.375,5.079 -5.633,4.715 -5.838,4.296 -6.043,3.876 -6.186,3.43 -6.265,2.958 l -3.079,0.084 c 0.108,0.727 0.377,1.371 0.807,1.934 0.43,0.562 0.965,1.03 1.605,1.405 0.64,0.374 1.362,0.655 2.168,0.843 0.807,0.187 1.641,0.269 2.5,0.245 1.106,-0.031 2.03,-0.164 2.774,-0.4 C 1.254,6.833 1.848,6.516 2.289,6.117 2.73,5.718 3.041,5.237 3.219,4.674 3.396,4.112 3.477,3.494 3.457,2.82 L 3.168,-7.643 C 3.152,-8.162 3.291,-8.627 3.584,-9.038 3.877,-9.45 4.24,-9.771 4.676,-10.004 Z"
             style="fill:#231f20;fill-opacity:1;fill-rule:nonzero;stroke:none"
             id="path96" />
        </g>
        <g
           id="g98"
           transform="translate(418.626,514.916)">
          <path
             d="M 0,0 0.95,-0.139 0.453,-3.532 c 1.183,0.988 2.361,1.683 3.536,2.086 1.175,0.403 2.325,0.522 3.45,0.357 0.59,-0.086 1.121,-0.298 1.59,-0.635 C 9.499,-2.06 9.891,-2.486 10.206,-3 10.521,-3.516 10.743,-4.098 10.871,-4.747 11,-5.396 11.013,-6.07 10.91,-6.77 L 9.149,-18.798 5.823,-18.312 7.5,-6.856 c 0.081,0.557 0.087,1.055 0.018,1.495 -0.07,0.44 -0.205,0.819 -0.403,1.139 C 6.916,-3.903 6.666,-3.646 6.366,-3.451 6.065,-3.256 5.718,-3.13 5.325,-3.073 4.975,-3.021 4.595,-3.027 4.184,-3.09 3.773,-3.153 3.348,-3.261 2.906,-3.414 2.466,-3.567 2.021,-3.761 1.574,-3.997 1.126,-4.233 0.69,-4.504 0.267,-4.81 l -1.819,-12.422 -3.343,0.489 2.365,16.159 z"
             style="fill:#231f20;fill-opacity:1;fill-rule:nonzero;stroke:none"
             id="path100" />
        </g>
        <g
           id="g102"
           transform="translate(452.8516,501.021)">
          <path
             d="m 0,0 c -0.515,-1.446 -0.759,-2.821 -0.73,-4.126 0.027,-1.305 0.281,-2.492 0.762,-3.56 0.482,-1.068 1.167,-1.998 2.057,-2.79 0.89,-0.791 1.944,-1.404 3.161,-1.837 0.728,-0.259 1.479,-0.369 2.256,-0.329 0.776,0.04 1.534,0.184 2.272,0.431 0.739,0.246 1.438,0.572 2.097,0.976 0.659,0.403 1.238,0.845 1.737,1.324 l 1.134,-1.459 c -0.675,-0.545 -1.418,-1.033 -2.227,-1.466 -0.811,-0.432 -1.686,-0.759 -2.626,-0.981 -0.942,-0.222 -1.945,-0.307 -3.01,-0.255 -1.067,0.051 -2.193,0.288 -3.378,0.71 -1.716,0.612 -3.172,1.452 -4.367,2.523 -1.196,1.069 -2.118,2.272 -2.769,3.605 -0.65,1.333 -1.016,2.75 -1.098,4.25 -0.081,1.5 0.138,2.978 0.657,4.434 0.344,0.967 0.805,1.867 1.383,2.699 0.578,0.831 1.246,1.566 2.006,2.204 0.761,0.637 1.601,1.17 2.522,1.599 0.92,0.428 1.895,0.731 2.926,0.909 1.03,0.178 2.102,0.218 3.215,0.12 C 9.095,8.884 10.229,8.629 11.384,8.218 12.486,7.825 13.45,7.315 14.275,6.687 15.101,6.059 15.809,5.364 16.399,4.604 16.989,3.842 17.47,3.035 17.84,2.183 18.211,1.33 18.484,0.479 18.663,-0.37 L 16.794,-0.83 C 16.527,1.153 15.996,2.722 15.2,3.878 14.405,5.035 13.311,5.862 11.917,6.358 10.721,6.784 9.524,6.964 8.329,6.897 7.133,6.831 6.003,6.53 4.939,5.995 3.875,5.459 2.916,4.69 2.061,3.688 1.205,2.686 0.519,1.456 0,0"
             style="fill:#231f20;fill-opacity:1;fill-rule:nonzero;stroke:none"
             id="path104" />
        </g>
        <g
           id="g106"
           transform="translate(483.7695,494.8809)">
          <path
             d="m 0,0 -5.624,-10.685 c -0.196,-0.371 -0.296,-0.768 -0.3,-1.19 -0.004,-0.422 0.082,-0.835 0.256,-1.239 0.174,-0.404 0.422,-0.781 0.743,-1.13 0.321,-0.35 0.711,-0.646 1.171,-0.888 0.293,-0.154 0.642,-0.257 1.045,-0.307 0.404,-0.05 0.825,-0.05 1.264,0 0.438,0.05 0.875,0.15 1.31,0.302 0.435,0.151 0.838,0.342 1.208,0.571 l 5.772,10.963 2.96,-1.559 -7.901,-15.007 -2.96,1.558 1.481,2.814 c -0.489,-0.291 -1.033,-0.523 -1.629,-0.696 -0.597,-0.173 -1.199,-0.279 -1.808,-0.321 -0.608,-0.042 -1.2,-0.017 -1.776,0.074 -0.576,0.091 -1.084,0.252 -1.524,0.484 -0.654,0.344 -1.206,0.791 -1.653,1.338 -0.448,0.548 -0.776,1.145 -0.985,1.792 -0.209,0.646 -0.288,1.318 -0.239,2.016 0.048,0.698 0.241,1.364 0.575,1.999 L -2.99,1.574 Z"
             style="fill:#231f20;fill-opacity:1;fill-rule:nonzero;stroke:none"
             id="path108" />
        </g>
        <g
           id="g110"
           transform="translate(506.0273,489.5933)">
          <path
             d="M 0,0 C 0.146,0.222 0.324,0.402 0.534,0.541 0.745,0.68 0.973,0.774 1.217,0.825 1.462,0.875 1.709,0.878 1.957,0.833 2.205,0.789 2.439,0.693 2.661,0.548 2.883,0.402 3.063,0.224 3.201,0.013 3.341,-0.197 3.436,-0.425 3.485,-0.67 3.536,-0.915 3.539,-1.161 3.494,-1.409 3.449,-1.658 3.354,-1.893 3.209,-2.114 3.063,-2.335 2.885,-2.515 2.674,-2.654 2.464,-2.793 2.235,-2.888 1.991,-2.938 1.746,-2.988 1.5,-2.991 1.252,-2.947 c -0.248,0.045 -0.483,0.14 -0.704,0.286 -0.222,0.145 -0.402,0.324 -0.541,0.535 -0.139,0.21 -0.234,0.438 -0.284,0.682 -0.05,0.245 -0.053,0.491 -0.009,0.74 C -0.241,-0.456 -0.146,-0.221 0,0 m -3.706,-6.107 2.507,-0.5 0.815,-0.538 -9.503,-14.426 -2.794,1.841 z"
             style="fill:#231f20;fill-opacity:1;fill-rule:nonzero;stroke:none"
             id="path112" />
        </g>
        <g
           id="g114"
           transform="translate(508.1045,460.2886)">
          <path
             d="m 0,0 c 0.355,-0.281 0.727,-0.487 1.116,-0.619 0.389,-0.131 0.765,-0.193 1.13,-0.186 0.364,0.007 0.701,0.082 1.012,0.224 0.309,0.143 0.563,0.339 0.762,0.59 C 4.342,0.417 4.521,0.852 4.558,1.316 4.594,1.78 4.539,2.263 4.394,2.765 4.249,3.267 4.043,3.785 3.776,4.32 3.51,4.855 3.239,5.403 2.965,5.964 2.691,6.526 2.437,7.094 2.2,7.667 1.965,8.241 1.807,8.82 1.727,9.404 1.646,9.989 1.671,10.571 1.8,11.152 c 0.129,0.581 0.416,1.153 0.861,1.716 0.417,0.528 0.919,0.931 1.504,1.207 0.585,0.277 1.208,0.42 1.871,0.431 0.663,0.011 1.346,-0.11 2.047,-0.362 0.701,-0.253 1.382,-0.639 2.04,-1.16 0.441,-0.349 0.828,-0.705 1.162,-1.067 0.333,-0.362 0.615,-0.775 0.846,-1.239 0.231,-0.465 0.4,-1.003 0.507,-1.615 0.107,-0.613 0.158,-1.34 0.154,-2.182 L 11.13,6.782 c 0.148,1.219 0.072,2.276 -0.229,3.168 -0.3,0.893 -0.801,1.616 -1.503,2.172 C 9.017,12.423 8.635,12.651 8.251,12.807 7.867,12.963 7.502,13.048 7.154,13.063 6.807,13.077 6.484,13.025 6.187,12.908 5.891,12.791 5.646,12.611 5.455,12.369 5.14,11.97 4.976,11.537 4.964,11.067 4.952,10.598 5.033,10.101 5.209,9.575 5.384,9.049 5.625,8.503 5.931,7.937 6.236,7.372 6.547,6.795 6.863,6.207 7.18,5.619 7.474,5.021 7.745,4.412 8.017,3.803 8.209,3.196 8.323,2.593 8.437,1.989 8.439,1.392 8.331,0.801 8.224,0.211 7.95,-0.361 7.512,-0.916 7.066,-1.479 6.547,-1.922 5.951,-2.247 5.356,-2.572 4.707,-2.748 4.003,-2.775 3.299,-2.802 2.548,-2.67 1.752,-2.378 c -0.797,0.293 -1.624,0.777 -2.481,1.456 -0.39,0.308 -0.767,0.655 -1.13,1.041 -0.364,0.386 -0.683,0.833 -0.958,1.339 -0.276,0.506 -0.495,1.084 -0.657,1.733 -0.162,0.649 -0.236,1.392 -0.223,2.226 l 1.848,0.122 C -1.885,4.834 -1.881,4.208 -1.836,3.659 -1.792,3.11 -1.696,2.612 -1.55,2.166 -1.403,1.719 -1.203,1.322 -0.95,0.974 -0.698,0.626 -0.381,0.302 0,0"
             style="fill:#231f20;fill-opacity:1;fill-rule:nonzero;stroke:none"
             id="path116" />
        </g>
        <g
           id="g118"
           transform="translate(534.4492,467.5332)">
          <path
             d="M 0,0 C 0.182,0.192 0.389,0.339 0.619,0.44 0.851,0.541 1.092,0.594 1.341,0.602 1.591,0.609 1.834,0.569 2.071,0.482 2.308,0.396 2.522,0.262 2.716,0.08 2.908,-0.102 3.056,-0.309 3.156,-0.54 3.256,-0.771 3.311,-1.012 3.317,-1.262 3.325,-1.511 3.285,-1.755 3.198,-1.992 3.111,-2.229 2.978,-2.443 2.796,-2.636 2.614,-2.829 2.407,-2.976 2.176,-3.076 1.944,-3.177 1.704,-3.231 1.454,-3.238 1.204,-3.246 0.961,-3.206 0.725,-3.119 0.487,-3.032 0.272,-2.898 0.08,-2.716 c -0.193,0.182 -0.34,0.388 -0.44,0.62 -0.101,0.231 -0.155,0.471 -0.162,0.721 -0.007,0.25 0.032,0.493 0.119,0.73 C -0.316,-0.408 -0.182,-0.193 0,0 m -4.704,-5.376 2.382,-0.926 0.711,-0.67 -11.851,-12.57 -2.434,2.295 z"
             style="fill:#231f20;fill-opacity:1;fill-rule:nonzero;stroke:none"
             id="path120" />
        </g>
        <g
           id="g122"
           transform="translate(542.0615,451.1909)">
          <path
             d="M 0,0 0.632,-0.724 -1.95,-2.979 C -0.409,-2.997 0.937,-3.235 2.093,-3.692 3.247,-4.149 4.199,-4.806 4.947,-5.663 5.34,-6.111 5.605,-6.617 5.743,-7.178 5.882,-7.739 5.903,-8.317 5.809,-8.913 5.714,-9.509 5.504,-10.096 5.18,-10.673 4.854,-11.25 4.427,-11.771 3.895,-12.235 l -9.156,-7.999 -2.212,2.531 8.718,7.618 c 0.425,0.371 0.753,0.746 0.986,1.125 0.233,0.379 0.377,0.755 0.434,1.127 0.056,0.372 0.033,0.729 -0.068,1.073 -0.103,0.343 -0.284,0.665 -0.546,0.964 -0.233,0.266 -0.526,0.509 -0.878,0.728 -0.354,0.219 -0.747,0.414 -1.182,0.585 -0.434,0.17 -0.898,0.311 -1.391,0.422 -0.494,0.111 -1.001,0.189 -1.523,0.231 L -12.377,-12.09 -14.6,-9.546 -2.302,1.2 Z"
             style="fill:#231f20;fill-opacity:1;fill-rule:nonzero;stroke:none"
             id="path124" />
        </g>
        <g
           id="g126"
           transform="translate(557.502,421.8081)">
          <path
             d="M 0,0 C 0.53,0.359 0.961,0.787 1.292,1.283 1.622,1.78 1.843,2.306 1.954,2.861 2.065,3.416 2.068,3.978 1.964,4.547 1.859,5.116 1.637,5.652 1.297,6.155 1.012,6.576 0.646,6.915 0.199,7.172 -0.248,7.43 -0.741,7.596 -1.279,7.672 -1.817,7.749 -2.381,7.73 -2.972,7.618 -3.562,7.505 -4.135,7.288 -4.689,6.966 Z m -11.698,-3.871 c -0.643,0.952 -1.07,1.966 -1.279,3.044 -0.209,1.078 -0.217,2.136 -0.025,3.172 0.192,1.037 0.58,2.015 1.164,2.936 0.583,0.922 1.342,1.698 2.275,2.328 1.125,0.761 2.277,1.3 3.455,1.617 1.178,0.317 2.32,0.408 3.423,0.275 C -1.582,9.367 -0.548,9.01 0.418,8.43 1.384,7.85 2.219,7.039 2.924,5.996 3.542,5.081 3.949,4.129 4.144,3.142 4.339,2.154 4.351,1.199 4.181,0.278 4.011,-0.644 3.673,-1.499 3.166,-2.288 2.66,-3.076 2.018,-3.734 1.24,-4.259 L -5.838,6.209 C -6.78,5.572 -7.572,4.86 -8.213,4.074 -8.854,3.288 -9.318,2.477 -9.607,1.642 -9.896,0.807 -10,-0.024 -9.922,-0.85 c 0.079,-0.827 0.363,-1.601 0.852,-2.324 0.408,-0.603 0.899,-1.118 1.473,-1.543 0.574,-0.425 1.174,-0.756 1.8,-0.992 0.626,-0.236 1.254,-0.375 1.882,-0.417 0.628,-0.042 1.205,0.022 1.73,0.19 l 0.191,-1.05 c -0.859,-0.287 -1.755,-0.42 -2.69,-0.399 -0.933,0.021 -1.838,0.173 -2.714,0.453 -0.877,0.281 -1.691,0.681 -2.441,1.199 -0.751,0.519 -1.371,1.14 -1.859,1.862"
             style="fill:#231f20;fill-opacity:1;fill-rule:nonzero;stroke:none"
             id="path128" />
        </g>
        <g
           id="g130"
           transform="translate(529.1507,90.6774)">
          <path
             d="M 0,0 C 0,0.146 0.118,0.264 0.264,0.264 0.41,0.264 0.529,0.146 0.529,0 0.529,-0.146 0.41,-0.264 0.264,-0.264 0.118,-0.264 0,-0.146 0,0"
             style="fill:#ffffff;fill-opacity:1;fill-rule:nonzero;stroke:none"
             id="path132" />
        </g>
      </g>
    </g>
  </g>
</svg>
